<svg id="Layer_1" data-name="Layer 1" xmlns="http://www.w3.org/2000/svg" viewBox="0 0 512 512"><defs><style>.cls-1{fill:#141f38;}</style></defs><title>digital-camera-glyph</title><path class="cls-1" d="M179.2,294.4A76.8,76.8,0,1,1,256,371.2,76.8,76.8,0,0,1,179.2,294.4ZM256,409.6A114.66,114.66,0,0,1,183.67,384H0v38.4a64.19,64.19,0,0,0,64,64H448a64.19,64.19,0,0,0,64-64V384H328.33A114.66,114.66,0,0,1,256,409.6ZM371.2,294.4a114.64,114.64,0,0,1-19.43,64H512v-128H351.77A114.64,114.64,0,0,1,371.2,294.4Zm-230.4,0a114.64,114.64,0,0,1,19.43-64H0v128H160.23A114.64,114.64,0,0,1,140.8,294.4ZM512,166.4v38.4H328.33a115,115,0,0,0-144.67,0H0V166.4a64.19,64.19,0,0,1,64-64h86.36l11.57-32.06c9.65-26.72,36.73-44.74,67.23-44.74h53.66c30.5,0,57.59,18,67.23,44.74l11.57,32.06H448A64.19,64.19,0,0,1,512,166.4Zm-64-12.8a12.84,12.84,0,0,0-12.8-12.8H409.6a12.8,12.8,0,0,0,0,25.6h25.6A12.84,12.84,0,0,0,448,153.6Z"/></svg>