<?xml version="1.0" standalone="no"?>
<!DOCTYPE svg PUBLIC "-//W3C//DTD SVG 20010904//EN"
 "http://www.w3.org/TR/2001/REC-SVG-20010904/DTD/svg10.dtd">
<svg version="1.0" xmlns="http://www.w3.org/2000/svg"
 width="512.000000pt" height="512.000000pt" viewBox="0 0 512.000000 512.000000"
 preserveAspectRatio="xMidYMid meet">
<metadata>
Created by potrace 1.14, written by Peter Selinger 2001-2017
</metadata>
<g transform="translate(0.000000,512.000000) scale(0.100000,-0.100000)"
fill="#000000" stroke="none">
<path d="M1720 4380 l0 -280 -285 0 -285 0 0 120 0 120 -155 0 -155 0 0 80 0
80 -115 0 -115 0 0 -80 0 -80 -135 0 -135 0 0 -120 0 -120 -65 0 -65 0 2
-1562 3 -1563 634 -3 633 -2 97 -98 c200 -201 435 -330 711 -389 120 -26 420
-26 540 0 275 59 510 188 712 389 l97 98 633 2 633 3 3 1562 2 1563 -777 2
-778 3 -3 278 -2 277 -815 0 -815 0 0 -280z m1330 -100 l0 -160 -515 0 -515 0
0 160 0 160 515 0 515 0 0 -160z m1425 -760 l0 -185 -380 0 -380 0 -3 175 c-1
96 0 180 2 187 4 11 81 13 383 11 l378 -3 0 -185z m-1103 33 c22 -20 23 -41 1
-65 -20 -22 -41 -23 -65 -1 -22 20 -23 41 -1 65 20 22 41 23 65 1z m-1668
-645 c-72 -57 -219 -213 -270 -289 -168 -245 -245 -491 -245 -785 0 -266 62
-492 197 -715 19 -31 34 -59 34 -62 0 -4 -252 -7 -560 -7 l-560 0 0 945 0 945
718 2 c394 2 719 2 721 0 3 -1 -13 -17 -35 -34z m2424 33 l692 -1 0 -945 0
-945 -560 0 c-308 0 -560 3 -560 7 0 3 15 31 34 62 135 223 197 449 197 715 0
292 -77 541 -243 782 -59 87 -176 213 -252 274 -31 25 -56 47 -56 50 0 3 12 5
28 4 15 -1 339 -3 720 -3z m-1368 -57 c404 -76 730 -382 836 -783 31 -117 42
-308 25 -421 -66 -429 -377 -775 -796 -887 -89 -23 -118 -26 -265 -26 -148 0
-175 2 -265 27 -303 82 -547 277 -684 546 -93 181 -128 341 -118 544 22 488
368 894 847 996 110 24 308 26 420 4z"/>
<path d="M2395 2606 c-281 -65 -491 -256 -589 -535 -28 -80 -30 -96 -30 -236
-1 -144 1 -154 32 -245 76 -218 213 -374 414 -470 229 -109 473 -105 700 10
392 199 543 692 331 1080 -97 178 -260 312 -458 377 -99 32 -302 41 -400 19z"/>
</g>
</svg>
